<svg xmlns="http://www.w3.org/2000/svg" xmlns:xlink="http://www.w3.org/1999/xlink" xmlns:inkscape="http://www.inkscape.org/namespaces/inkscape" version="1.1" width="1042.8281" height="108" viewBox="0 0 1042.8281 108">
<path transform="matrix(1,0,0,-1,0,18.535004)" d="M0 17H34V0H0V17Z" fill="#0873bb"/>
<path transform="matrix(0,-1,-1,0,34,35.535005)" d="M0 34H34V16.999999H0V34Z" fill="#0873bb"/>
<path transform="matrix(-1,0,0,1,109,88.535)" d="M0 17.000004H34V.000004H0V17.000004Z" fill="#0873bb"/>
<path transform="matrix(0,1,1,0,75,71.535)" d="M0 34.000005H34V17.000002H0V34.000005Z" fill="#0873bb"/>
<path transform="matrix(0,-1,-1,-0,34,105.535)" d="M0 34H34V17H0V34Z" fill="#0873bb"/>
<path transform="matrix(-1,0,0,1,34,88.535)" d="M0 17.000002H34V0H0V17.000002Z" fill="#0873bb"/>
<path transform="matrix(0,1,1,0,75,1.5350037)" d="M0 34H34V17H0V34Z" fill="#0873bb"/>
<path transform="matrix(1,0,0,-1,75,18.535004)" d="M0 17H34V-.000002H0V17Z" fill="#0873bb"/>
<path transform="matrix(1,0,0,-1,38,78.535)" d="M33 16.5C33 7.387302 25.612698 0 16.5 0 7.387301 0 0 7.387302 0 16.5 0 25.612698 16.5 50 16.5 50 16.5 50 33 25.612698 33 16.5Z" fill="#0873bb"/>
<path transform="matrix(1,0,0,-1,792.48,106.935009)" d="M20.240002 99.8V99.3H20.740002V99.8H20.240002ZM7.200001 99.8V100.3H6.700001V99.8H7.200001ZM7.200001 95.04H6.700001V94.54H7.200001V95.04ZM18.56 95.04H19.06V95.54H18.56V95.04ZM18.56 88.920009V88.420009H19.06V88.920009H18.56ZM7.200001 88.920009V89.420009H6.700001V88.920009H7.200001ZM7.200001 83.520008H6.700001V83.020008H7.200001V83.520008ZM20.240002 83.520008H20.740002V84.020008H20.240002V83.520008ZM20.240002 77.4V76.9H20.740002V77.4H20.240002ZM0 77.4H-.5V76.9H0V77.4ZM0 105.920009V106.420009H-.5V105.920009H0ZM20.240002 105.920009H20.740002V106.420009H20.240002V105.920009ZM47.224065 77.4 46.745237 77.25604 46.85228 76.9H47.224065V77.4ZM45.384065 83.520008 45.862894 83.66396 45.755849 84.020008H45.384065V83.520008ZM35.30406 83.520008V84.020008H34.932279L34.825235 83.66396 35.30406 83.520008ZM33.46406 77.4V76.9H33.835847L33.94289 77.25604 33.46406 77.4ZM26.104062 77.4 25.62724 77.550479 25.421973 76.9H26.104062V77.4ZM35.10406 105.920009V106.420009H34.73754L34.62724 106.07047 35.10406 105.920009ZM45.62406 105.920009 46.100885 106.07047 45.99058 106.420009H45.62406V105.920009ZM54.624067 77.4V76.9H55.306158L55.100889 77.550479 54.624067 77.4ZM37.184064 89.68001 36.70555 89.82501 36.510095 89.18001H37.184064V89.68001ZM43.544065 89.68001V89.18001H44.21559L44.023077 89.82335 43.544065 89.68001ZM40.384065 100.240009 40.863077 100.38335 40.387075 101.97404 39.905553 100.38501 40.384065 100.240009ZM79.4275 77.4 79.015529 77.11667 79.164539 76.9H79.4275V77.4ZM72.4675 87.520008 72.87947 87.80334 72.73046 88.020008H72.4675V87.520008ZM69.1875 87.520008V88.020008H68.6875V87.520008H69.1875ZM69.1875 77.4V76.9H69.6875V77.4H69.1875ZM61.9875 77.4H61.4875V76.9H61.9875V77.4ZM61.9875 105.920009V106.420009H61.4875V105.920009H61.9875ZM80.6275 87.96001 80.47562 88.43637 79.83649 88.23259 80.214389 87.67834 80.6275 87.96001ZM87.8275 77.4V76.9H88.77357L88.240619 77.68167 87.8275 77.4ZM69.1875 99.8V100.3H68.6875V99.8H69.1875ZM69.1875 93.64001H68.6875V93.14001H69.1875V93.64001ZM102.44687 83.520008H101.94687V83.020008H102.44687V83.520008ZM115.046878 83.520008H115.546878V84.020008H115.046878V83.520008ZM115.046878 77.4V76.9H115.546878V77.4H115.046878ZM95.24687 77.4H94.74687V76.9H95.24687V77.4ZM95.24687 105.920009V106.420009H94.74687V105.920009H95.24687ZM102.44687 105.920009H102.94687V106.420009H102.44687V105.920009ZM143.56125 105.920009 144.00074 105.681568 144.40139 106.420009H143.56125V105.920009ZM133.36125 87.12 132.92177 87.358448 132.86125 87.2469V87.12H133.36125ZM133.36125 77.4V76.9H133.86125V77.4H133.36125ZM126.12125 77.4H125.62125V76.9H126.12125V77.4ZM126.12125 87.12H126.62125V87.2469L126.56073 87.358448 126.12125 87.12ZM115.92125 105.920009V106.420009H115.08112L115.481769 105.681568 115.92125 105.920009ZM123.92125 105.920009 124.36252 106.155139 124.22138 106.420009H123.92125V105.920009ZM129.76125 94.96001 129.31998 94.72488 129.76276 93.8939 130.20319 94.726139 129.76125 94.96001ZM135.56125 105.920009V106.420009H135.26015L135.11931 106.15388 135.56125 105.920009ZM7.200001 45.520006H6.700001V45.020006H7.200001V45.520006ZM19.800002 45.520006H20.300002V46.020006H19.800002V45.520006ZM19.800002 39.4V38.9H20.300002V39.4H19.800002ZM0 39.4H-.5V38.9H0V39.4ZM0 67.920009V68.420009H-.5V67.920009H0ZM7.200001 67.920009H7.700001V68.420009H7.200001V67.920009ZM47.44469 61.800004V61.300004H47.94469V61.800004H47.44469ZM34.404687 61.800004V62.300004H33.904687V61.800004H34.404687ZM34.404687 57.040006H33.904687V56.540006H34.404687V57.040006ZM45.764688 57.040006H46.264688V57.540006H45.764688V57.040006ZM45.764688 50.920007V50.420007H46.264688V50.920007H45.764688ZM34.404687 50.920007V51.420007H33.904687V50.920007H34.404687ZM34.404687 45.520006H33.904687V45.020006H34.404687V45.520006ZM47.44469 45.520006H47.94469V46.020006H47.44469V45.520006ZM47.44469 39.4V38.9H47.94469V39.4H47.44469ZM27.204688 39.4H26.704688V38.9H27.204688V39.4ZM27.204688 67.920009V68.420009H26.704688V67.920009H27.204688ZM47.44469 67.920009H47.94469V68.420009H47.44469V67.920009ZM74.42875 39.4 73.94992 39.256044 74.05697 38.9H74.42875V39.4ZM72.58875 45.520006 73.06758 45.663965 72.96053 46.020006H72.58875V45.520006ZM62.50875 45.520006V46.020006H62.136968L62.029924 45.663969 62.50875 45.520006ZM60.66875 39.4V38.9H61.040536L61.14758 39.256044 60.66875 39.4ZM53.30875 39.4 52.83193 39.55047 52.62666 38.9H53.30875V39.4ZM62.30875 67.920009V68.420009H61.94223L61.83193 68.07048 62.30875 67.920009ZM72.82875 67.920009 73.30557 68.07048 73.195278 68.420009H72.82875V67.920009ZM81.82875 39.4V38.9H82.51084L82.30557 39.55047 81.82875 39.4ZM64.38875 51.680006 63.910238 51.82501 63.71478 51.180006H64.38875V51.680006ZM70.74875 51.680006V51.180006H71.42027L71.22776 51.823347 70.74875 51.680006ZM67.58875 62.240007 68.067768 62.383348 67.59177 63.974039 67.11024 62.38501 67.58875 62.240007ZM106.552188 39.4 106.13796 39.119966 106.286678 38.9H106.552188V39.4ZM98.872188 50.760004 99.28641 51.04004 99.137699 51.260004H98.872188V50.760004ZM96.39218 50.760004V51.260004H95.89218V50.760004H96.39218ZM96.39218 39.4V38.9H96.89218V39.4H96.39218ZM89.192188 39.4H88.692188V38.9H89.192188V39.4ZM89.192188 67.920009V68.420009H88.692188V67.920009H89.192188ZM96.39218 67.920009H96.89218V68.420009H96.39218V67.920009ZM96.39218 56.920007H95.89218V56.420007H96.39218V56.920007ZM98.872188 56.920007V56.420007H99.14168L99.28984 56.645116 98.872188 56.920007ZM106.11218 67.920009V68.420009H105.84269L105.69453 68.1949 106.11218 67.920009ZM114.47218 67.920009 114.89002 67.64539 115.39912 68.420009H114.47218V67.920009ZM105.192188 53.800004 104.774349 54.074617 104.59106 53.79573 104.7783 53.519479 105.192188 53.800004ZM114.95219 39.4V38.9H115.8951L115.36607 39.680528 114.95219 39.4ZM141.49437 39.4 141.01555 39.256044 141.12259 38.9H141.49437V39.4ZM139.65438 45.520006 140.1332 45.663965 140.02616 46.020006H139.65438V45.520006ZM129.57437 45.520006V46.020006H129.20259L129.09555 45.663965 129.57437 45.520006ZM127.734378 39.4V38.9H128.10616L128.2132 39.256044 127.734378 39.4ZM120.374378 39.4 119.89755 39.55047 119.69228 38.9H120.374378V39.4ZM129.37438 67.920009V68.420009H129.00786L128.89756 68.07048 129.37438 67.920009ZM139.89438 67.920009 140.3712 68.07048 140.2609 68.420009H139.89438V67.920009ZM148.89438 39.4V38.9H149.57646L149.3712 39.55047 148.89438 39.4ZM131.45438 51.680006 130.97586 51.82501 130.78041 51.180006H131.45438V51.680006ZM137.81438 51.680006V51.180006H138.4859L138.2934 51.823347 137.81438 51.680006ZM134.65438 62.240007 135.13339 62.383348 134.65738 63.974039 134.17586 62.38501 134.65438 62.240007ZM165.43845 49.840005H164.93845V49.340005H165.43845V49.840005ZM165.43845 56.000005V56.500005H164.93845V56.000005H165.43845ZM178.47844 56.000005H178.97844V56.500005H178.47844V56.000005ZM178.43845 60.680006 178.4967 60.18341 178.83975 60.223657 178.92353 60.55874 178.43845 60.680006ZM171.27845 59.840005H170.77845V59.277917L171.3367 59.34341 171.27845 59.840005ZM171.27845 49.840005H171.77845V50.340005H171.27845V49.840005ZM207.68688 61.800004V61.300004H208.18688V61.800004H207.68688ZM194.64687 61.800004V62.300004H194.14687V61.800004H194.64687ZM194.64687 57.040006H194.14687V56.540006H194.64687V57.040006ZM206.00687 57.040006H206.50687V57.540006H206.00687V57.040006ZM206.00687 50.920007V50.420007H206.50687V50.920007H206.00687ZM194.64687 50.920007V51.420007H194.14687V50.920007H194.64687ZM194.64687 45.520006H194.14687V45.020006H194.64687V45.520006ZM207.68688 45.520006H208.18688V46.020006H207.68688V45.520006ZM207.68688 39.4V38.9H208.18688V39.4H207.68688ZM187.44687 39.4H186.94687V38.9H187.44687V39.4ZM187.44687 67.920009V68.420009H186.94687V67.920009H187.44687ZM207.68688 67.920009H208.18688V68.420009H207.68688V67.920009ZM0 1.400002H-.5V.900002H0V1.400002ZM0 29.920006V30.420006H-.5V29.920006H0ZM7.200001 23.800004V24.300004H6.700001V23.800004H7.200001ZM7.200001 7.520004H6.700001V7.020004H7.200001V7.520004ZM51.97594 23.800004V23.300004H52.47594V23.800004H51.97594ZM38.935937 23.800004V24.300004H38.435937V23.800004H38.935937ZM38.935937 19.04H38.435937V18.54H38.935937V19.04ZM50.295938 19.04H50.795938V19.54H50.295938V19.04ZM50.295938 12.920006V12.420006H50.795938V12.920006H50.295938ZM38.935937 12.920006V13.420006H38.435937V12.920006H38.935937ZM38.935937 7.520004H38.435937V7.020004H38.935937V7.520004ZM51.97594 7.520004H52.47594V8.020004H51.97594V7.520004ZM51.97594 1.400002V.900002H52.47594V1.400002H51.97594ZM31.735938 1.400002H31.235938V.900002H31.735938V1.400002ZM31.735938 29.920006V30.420006H31.235938V29.920006H31.735938ZM51.97594 29.920006H52.47594V30.420006H51.97594V29.920006ZM81.28 29.920006H81.78V30.420006H81.28V29.920006ZM81.28 23.800004V23.300004H81.78V23.800004H81.28ZM73.16 23.800004V24.300004H72.66V23.800004H73.16ZM73.16 1.400002V.900002H73.66V1.400002H73.16ZM65.96 1.400002H65.46V.900002H65.96V1.400002ZM65.96 23.800004H66.46V24.300004H65.96V23.800004ZM57.84 23.800004H57.34V23.300004H57.84V23.800004ZM57.84 29.920006V30.420006H57.34V29.920006H57.84ZM108.885318 23.800004V23.300004H109.385318V23.800004H108.885318ZM95.84531 23.800004V24.300004H95.34531V23.800004H95.84531ZM95.84531 19.04H95.34531V18.54H95.84531V19.04ZM107.20531 19.04H107.70531V19.54H107.20531V19.04ZM107.20531 12.920006V12.420006H107.70531V12.920006H107.20531ZM95.84531 12.920006V13.420006H95.34531V12.920006H95.84531ZM95.84531 7.520004H95.34531V7.020004H95.84531V7.520004ZM108.885318 7.520004H109.385318V8.020004H108.885318V7.520004ZM108.885318 1.400002V.900002H109.385318V1.400002H108.885318ZM88.64531 1.400002H88.14531V.900002H88.64531V1.400002ZM88.64531 29.920006V30.420006H88.14531V29.920006H88.64531ZM108.885318 29.920006H109.385318V30.420006H108.885318V29.920006ZM139.74938 22.68 139.80764 22.183403 140.15068 22.223649 140.23445 22.558732 139.74938 22.68ZM132.58937 21.840004H132.08937V21.277916L132.64763 21.343407 132.58937 21.840004ZM132.58937 9.520004 132.65036 10.016273 132.08937 10.08522V9.520004H132.58937ZM139.74938 8.640007 140.23445 8.761276 140.15117 9.094383 139.81037 9.136276 139.74938 8.640007ZM169.57375 29.920006H170.07375V30.420006H169.57375V29.920006ZM169.57375 23.800004V23.300004H170.07375V23.800004H169.57375ZM161.45375 23.800004V24.300004H160.95375V23.800004H161.45375ZM161.45375 1.400002V.900002H161.95375V1.400002H161.45375ZM154.25376 1.400002H153.75376V.900002H154.25376V1.400002ZM154.25376 23.800004H154.75376V24.300004H154.25376V23.800004ZM146.13375 23.800004H145.63375V23.300004H146.13375V23.800004ZM146.13375 29.920006V30.420006H145.63375V29.920006H146.13375ZM176.93906 1.400002H176.43906V.900002H176.93906V1.400002ZM176.93906 29.920006V30.420006H176.43906V29.920006H176.93906ZM184.13906 29.920006H184.63906V30.420006H184.13906V29.920006ZM184.13906 1.400002V.900002H184.63906V1.400002H184.13906ZM242.64812 29.920006V30.420006H242.14812V29.920006H242.64812ZM249.84813 29.920006H250.34813V30.420006H249.84813V29.920006ZM249.84813 1.400002V.900002H250.34813V1.400002H249.84813ZM242.84813 1.400002 242.42212 1.138237 242.56851 .900002H242.84813V1.400002ZM232.64812 18.000008 233.07413 18.261773 232.14812 19.768799V18.000008H232.64812ZM232.64812 1.400002V.900002H233.14812V1.400002H232.64812ZM225.44812 1.400002H224.94812V.900002H225.44812V1.400002ZM225.44812 29.920006V30.420006H224.94812V29.920006H225.44812ZM232.40813 29.920006 232.83368 30.18251 232.68718 30.420006H232.40813V29.920006ZM242.64812 13.320007 242.22257 13.057503 243.14812 11.557098V13.320007H242.64812ZM20.240002 99.8V100.3H7.200001V99.8 99.3H20.240002V99.8ZM7.200001 99.8H6.700001V95.04H7.200001 7.700001V99.8H7.200001ZM7.200001 95.04V94.54H18.56V95.04 95.54H7.200001V95.04ZM18.56 95.04H18.06V88.920009H18.56 19.06V95.04H18.56ZM18.56 88.920009V89.420009H7.200001V88.920009 88.420009H18.56V88.920009ZM7.200001 88.920009H6.700001V83.520008H7.200001 7.700001V88.920009H7.200001ZM7.200001 83.520008V83.020008H20.240002V83.520008 84.020008H7.200001V83.520008ZM20.240002 83.520008H19.740002V77.4H20.240002 20.740002V83.520008H20.240002ZM20.240002 77.4V77.9H0V77.4 76.9H20.240002V77.4ZM0 77.4H.5V105.920009H0-.5V77.4H0ZM0 105.920009V105.420009H20.240002V105.920009 106.420009H0V105.920009ZM20.240002 105.920009H19.740002V99.8H20.240002 20.740002V105.920009H20.240002ZM47.224065 77.4 47.702894 77.54396 45.862894 83.66396 45.384065 83.520008 44.905237 83.376049 46.745237 77.25604 47.224065 77.4ZM45.384065 83.520008V84.020008H35.30406V83.520008 83.020008H45.384065V83.520008ZM35.30406 83.520008 34.825235 83.66396 32.985235 77.54396 33.46406 77.4 33.94289 77.25604 35.78289 83.376049 35.30406 83.520008ZM33.46406 77.4V77.9H26.104062V77.4 76.9H33.46406V77.4ZM26.104062 77.4 26.580883 77.249538 35.580884 105.76954 35.10406 105.920009 34.62724 106.07047 25.62724 77.550479 26.104062 77.4ZM35.10406 105.920009V105.420009H45.62406V105.920009 106.420009H35.10406V105.920009ZM45.62406 105.920009 45.14724 105.76954 54.147245 77.249538 54.624067 77.4 55.100889 77.550479 46.100885 106.07047 45.62406 105.920009ZM54.624067 77.4V77.9H47.224065V77.4 76.9H54.624067V77.4ZM37.184064 89.68001V89.18001H43.544065V89.68001 90.18001H37.184064V89.68001ZM43.544065 89.68001 44.023077 89.82335 40.863077 100.38335 40.384065 100.240009 39.905054 100.096668 43.065053 89.53667 43.544065 89.68001ZM40.384065 100.240009 39.905553 100.38501 36.70555 89.82501 37.184064 89.68001 37.662576 89.535 40.862577 100.095 40.384065 100.240009ZM79.4275 77.4 79.83947 77.683338 72.87947 87.80334 72.4675 87.520008 72.05553 87.23667 79.015529 77.11667 79.4275 77.4ZM72.4675 87.520008V88.020008H69.1875V87.520008 87.020008H72.4675V87.520008ZM69.1875 87.520008H68.6875V77.4H69.1875 69.6875V87.520008H69.1875ZM69.1875 77.4V77.9H61.9875V77.4 76.9H69.1875V77.4ZM61.9875 77.4H62.4875V105.920009H61.9875 61.4875V77.4H61.9875ZM61.9875 105.920009V105.420009H77.4675V105.920009 106.420009H61.9875V105.920009ZM77.4675 105.920009V105.420009C79.81144 105.420009 81.484569 104.839008 82.573398 103.77706 83.65997 102.71731 84.2475 101.09755 84.2475 98.840007H84.7475 85.2475C85.2475 101.26246 84.61503 103.1827 83.27161 104.49295 81.93043 105.80101 79.96356 106.420009 77.4675 106.420009V105.920009ZM84.7475 98.840007H84.2475V94.560009H84.7475 85.2475V98.840007H84.7475ZM84.7475 94.560009H84.2475C84.2475 92.86041 83.918727 91.53099 83.298069 90.53431 82.68311 89.54678 81.75628 88.8447 80.47562 88.43637L80.6275 87.96001 80.77939 87.48363C82.25873 87.95531 83.39189 88.79322 84.146938 90.0057 84.89627 91.20902 85.2475 92.7396 85.2475 94.560009H84.7475ZM80.6275 87.96001 80.214389 87.67834 87.41438 77.11833 87.8275 77.4 88.240619 77.68167 81.04062 88.24167 80.6275 87.96001ZM87.8275 77.4V77.9H79.4275V77.4 76.9H87.8275V77.4ZM69.1875 99.8H68.6875V93.64001H69.1875 69.6875V99.8H69.1875ZM69.1875 93.64001V93.14001H75.3075V93.64001 94.14001H69.1875V93.64001ZM75.3075 93.64001V93.14001C76.1691 93.14001 76.899829 93.26627 77.39773 93.72861 77.90672 94.20125 78.0475 94.90516 78.0475 95.72H77.5475 77.0475C77.0475 94.97485 76.90828 94.63876 76.71728 94.4614 76.515178 94.273738 76.12591 94.14001 75.3075 94.14001V93.64001ZM77.5475 95.72H78.0475V97.68001H77.5475 77.0475V95.72H77.5475ZM77.5475 97.68001H78.0475C78.0475 98.511928 77.90787 99.22543 77.400508 99.7038 76.90188 100.173938 76.16875 100.3 75.3075 100.3V99.8 99.3C76.12626 99.3 76.51312 99.16608 76.71449 98.97621 76.907138 98.79458 77.0475 98.44808 77.0475 97.68001H77.5475ZM75.3075 99.8V100.3H69.1875V99.8 99.3H75.3075V99.8ZM102.44687 83.520008V83.020008H115.046878V83.520008 84.020008H102.44687V83.520008ZM115.046878 83.520008H114.546878V77.4H115.046878 115.546878V83.520008H115.046878ZM115.046878 77.4V77.9H95.24687V77.4 76.9H115.046878V77.4ZM95.24687 77.4H95.74687V105.920009H95.24687 94.74687V77.4H95.24687ZM95.24687 105.920009V105.420009H102.44687V105.920009 106.420009H95.24687V105.920009ZM102.44687 105.920009H101.94687V83.520008H102.44687 102.94687V105.920009H102.44687ZM143.56125 105.920009 143.12177 106.15845 132.92177 87.358448 133.36125 87.12 133.80074 86.88156 144.00074 105.681568 143.56125 105.920009ZM133.36125 87.12H132.86125V77.4H133.36125 133.86125V87.12H133.36125ZM133.36125 77.4V77.9H126.12125V77.4 76.9H133.36125V77.4ZM126.12125 77.4H126.62125V87.12H126.12125 125.62125V77.4H126.12125ZM126.12125 87.12 126.56073 87.358448 116.36073 106.15845 115.92125 105.920009 115.481769 105.681568 125.68176 86.88156 126.12125 87.12ZM115.92125 105.920009V105.420009H123.92125V105.920009 106.420009H115.92125V105.920009ZM123.92125 105.920009 123.47998 105.684879 129.31998 94.72488 129.76125 94.96001 130.20252 95.19513 124.36252 106.155139 123.92125 105.920009ZM129.76125 94.96001 130.20319 94.726139 136.00319 105.686138 135.56125 105.920009 135.11931 106.15388 129.3193 95.19387 129.76125 94.96001ZM135.56125 105.920009V105.420009H143.56125V105.920009 106.420009H135.56125V105.920009ZM7.200001 45.520006V45.020006H19.800002V45.520006 46.020006H7.200001V45.520006ZM19.800002 45.520006H19.300002V39.4H19.800002 20.300002V45.520006H19.800002ZM19.800002 39.4V39.9H0V39.4 38.9H19.800002V39.4ZM0 39.4H.5V67.920009H0-.5V39.4H0ZM0 67.920009V67.420009H7.200001V67.920009 68.420009H0V67.920009ZM7.200001 67.920009H6.700001V45.520006H7.200001 7.700001V67.920009H7.200001ZM47.44469 61.800004V62.300004H34.404687V61.800004 61.300004H47.44469V61.800004ZM34.404687 61.800004H33.904687V57.040006H34.404687 34.904687V61.800004H34.404687ZM34.404687 57.040006V56.540006H45.764688V57.040006 57.540006H34.404687V57.040006ZM45.764688 57.040006H45.264688V50.920007H45.764688 46.264688V57.040006H45.764688ZM45.764688 50.920007V51.420007H34.404687V50.920007 50.420007H45.764688V50.920007ZM34.404687 50.920007H33.904687V45.520006H34.404687 34.904687V50.920007H34.404687ZM34.404687 45.520006V45.020006H47.44469V45.520006 46.020006H34.404687V45.520006ZM47.44469 45.520006H46.94469V39.4H47.44469 47.94469V45.520006H47.44469ZM47.44469 39.4V39.9H27.204688V39.4 38.9H47.44469V39.4ZM27.204688 39.4H27.704688V67.920009H27.204688 26.704688V39.4H27.204688ZM27.204688 67.920009V67.420009H47.44469V67.920009 68.420009H27.204688V67.920009ZM47.44469 67.920009H46.94469V61.800004H47.44469 47.94469V67.920009H47.44469ZM74.42875 39.4 74.90758 39.54396 73.06758 45.663965 72.58875 45.520006 72.109928 45.376047 73.94992 39.256044 74.42875 39.4ZM72.58875 45.520006V46.020006H62.50875V45.520006 45.020006H72.58875V45.520006ZM62.50875 45.520006 62.029924 45.663969 60.189924 39.54396 60.66875 39.4 61.14758 39.256044 62.98758 45.37604 62.50875 45.520006ZM60.66875 39.4V39.9H53.30875V39.4 38.9H60.66875V39.4ZM53.30875 39.4 53.785573 39.249536 62.785573 67.76953 62.30875 67.920009 61.83193 68.07048 52.83193 39.55047 53.30875 39.4ZM62.30875 67.920009V67.420009H72.82875V67.920009 68.420009H62.30875V67.920009ZM72.82875 67.920009 72.35193 67.76953 81.35193 39.249536 81.82875 39.4 82.30557 39.55047 73.30557 68.07048 72.82875 67.920009ZM81.82875 39.4V39.9H74.42875V39.4 38.9H81.82875V39.4ZM64.38875 51.680006V51.180006H70.74875V51.680006 52.180006H64.38875V51.680006ZM70.74875 51.680006 71.22776 51.823347 68.067768 62.383348 67.58875 62.240007 67.10974 62.096666 70.26974 51.536664 70.74875 51.680006ZM67.58875 62.240007 67.11024 62.38501 63.910238 51.82501 64.38875 51.680006 64.86726 51.535 68.06727 62.095 67.58875 62.240007ZM106.552188 39.4 106.96641 39.68004 99.28641 51.04004 98.872188 50.760004 98.45796 50.479967 106.13796 39.119966 106.552188 39.4ZM98.872188 50.760004V51.260004H96.39218V50.760004 50.260004H98.872188V50.760004ZM96.39218 50.760004H95.89218V39.4H96.39218 96.89218V50.760004H96.39218ZM96.39218 39.4V39.9H89.192188V39.4 38.9H96.39218V39.4ZM89.192188 39.4H89.692188V67.920009H89.192188 88.692188V39.4H89.192188ZM89.192188 67.920009V67.420009H96.39218V67.920009 68.420009H89.192188V67.920009ZM96.39218 67.920009H95.89218V56.920007H96.39218 96.89218V67.920009H96.39218ZM96.39218 56.920007V56.420007H98.872188V56.920007 57.420007H96.39218V56.920007ZM98.872188 56.920007 99.28984 56.645116 106.52984 67.64511 106.11218 67.920009 105.69453 68.1949 98.45453 57.194898 98.872188 56.920007ZM106.11218 67.920009V67.420009H114.47218V67.920009 68.420009H106.11218V67.920009ZM114.47218 67.920009 114.054347 68.19462 104.774349 54.074617 105.192188 53.800004 105.61002 53.52539 114.89002 67.64539 114.47218 67.920009ZM105.192188 53.800004 104.7783 53.519479 114.5383 39.119478 114.95219 39.4 115.36607 39.680528 105.60607 54.08053 105.192188 53.800004ZM114.95219 39.4V39.9H106.552188V39.4 38.9H114.95219V39.4ZM141.49437 39.4 141.97319 39.54396 140.1332 45.663965 139.65438 45.520006 139.17555 45.376047 141.01555 39.256044 141.49437 39.4ZM139.65438 45.520006V46.020006H129.57437V45.520006 45.020006H139.65438V45.520006ZM129.57437 45.520006 129.09555 45.663965 127.25555 39.54396 127.734378 39.4 128.2132 39.256044 130.05319 45.376047 129.57437 45.520006ZM127.734378 39.4V39.9H120.374378V39.4 38.9H127.734378V39.4ZM120.374378 39.4 120.8512 39.249536 129.8512 67.76953 129.37438 67.920009 128.89756 68.07048 119.89755 39.55047 120.374378 39.4ZM129.37438 67.920009V67.420009H139.89438V67.920009 68.420009H129.37438V67.920009ZM139.89438 67.920009 139.41756 67.76953 148.41756 39.249536 148.89438 39.4 149.3712 39.55047 140.3712 68.07048 139.89438 67.920009ZM148.89438 39.4V39.9H141.49437V39.4 38.9H148.89438V39.4ZM131.45438 51.680006V51.180006H137.81438V51.680006 52.180006H131.45438V51.680006ZM137.81438 51.680006 138.2934 51.823347 135.13339 62.383348 134.65438 62.240007 134.17536 62.096666 137.33536 51.536664 137.81438 51.680006ZM134.65438 62.240007 134.17586 62.38501 130.97586 51.82501 131.45438 51.680006 131.93289 51.535 135.13289 62.095 134.65438 62.240007ZM165.43845 49.840005H165.93845V56.000005H165.43845 164.93845V49.840005H165.43845ZM165.43845 56.000005V55.500005H178.47844V56.000005 56.500005H165.43845V56.000005ZM178.47844 56.000005H177.97844V46.080007H178.47844 178.97844V56.000005H178.47844ZM178.47844 46.080007H177.97844C177.97844 43.822446 177.39089 42.202154 176.3086 41.142229 175.22444 40.080476 173.56134 39.5 171.23844 39.5V39 38.5C173.71553 38.5 175.67243 39.119524 177.00829 40.42778 178.346 41.737855 178.97844 43.657567 178.97844 46.080007H178.47844ZM171.23844 39V39.5H162.23844V39 38.5H171.23844V39ZM162.23844 39V39.5C159.91553 39.5 158.25243 40.080476 157.16829 41.142229 156.086 42.202154 155.49845 43.822446 155.49845 46.080007H154.99845 154.49845C154.49845 43.657567 155.13089 41.737855 156.4686 40.42778 157.80445 39.119524 159.76134 38.5 162.23844 38.5V39ZM154.99845 46.080007H155.49845V61.240007H154.99845 154.49845V46.080007H154.99845ZM154.99845 61.240007H155.49845C155.49845 63.497568 156.086 65.11786 157.16829 66.17778 158.25243 67.23953 159.91553 67.82001 162.23844 67.82001V68.32001 68.82001C159.76136 68.82001 157.80445 68.200489 156.4686 66.89223 155.13089 65.58215 154.49845 63.662446 154.49845 61.240007H154.99845ZM162.23844 68.32001V67.82001H171.23844V68.32001 68.82001H162.23844V68.32001ZM171.23844 68.32001V67.82001C173.56134 67.82001 175.22499 67.23952 176.30936 66.182048 177.39148 65.12674 177.97844 63.51645 177.97844 61.280008H178.47844 178.97844C178.97844 63.683565 178.34539 65.59328 177.00753 66.897968 175.67188 68.2005 173.71553 68.82001 171.23844 68.82001V68.32001ZM178.47844 61.280008H177.97844C177.97844 60.943666 177.97553 60.88986 177.95337 60.80127L178.43845 60.680006 178.92353 60.55874C178.98137 60.79015 178.97844 60.976346 178.97844 61.280008H178.47844ZM178.43845 60.680006 178.38019 61.176599 171.22019 60.336599 171.27845 59.840005 171.3367 59.34341 178.4967 60.18341 178.43845 60.680006ZM171.27845 59.840005H171.77845V60.080007H171.27845 170.77845V59.840005H171.27845ZM171.27845 60.080007H171.77845C171.77845 60.91209 171.63872 61.62339 171.13906 62.101327 170.64575 62.573179 169.92203 62.700006 169.07845 62.700006V62.200006 61.700006C169.87487 61.700006 170.25113 61.566835 170.44783 61.378686 170.63817 61.19662 170.77845 60.847925 170.77845 60.080007H171.27845ZM169.07845 62.200006V62.700006H164.39844V62.200006 61.700006H169.07845V62.200006ZM164.39844 62.200006V62.700006C163.55486 62.700006 162.83113 62.573179 162.33783 62.101327 161.83817 61.62339 161.69844 60.91209 161.69844 60.080007H162.19844 162.69844C162.69844 60.847925 162.83872 61.19662 163.02906 61.378686 163.22576 61.566835 163.60202 61.700006 164.39844 61.700006V62.200006ZM162.19844 60.080007H161.69844V47.240007H162.19844 162.69844V60.080007H162.19844ZM162.19844 47.240007H161.69844C161.69844 46.424024 161.83974 45.71732 162.33513 45.23629 162.82614 44.7595 163.54746 44.620004 164.39844 44.620004V45.120004 45.620004C163.60942 45.620004 163.23073 45.76051 163.03176 45.953718 162.83715 46.142694 162.69844 46.495988 162.69844 47.240007H162.19844ZM164.39844 45.120004V44.620004H169.07845V45.120004 45.620004H164.39844V45.120004ZM169.07845 45.120004V44.620004C169.92943 44.620004 170.65074 44.7595 171.14176 45.23629 171.63715 45.71732 171.77845 46.424024 171.77845 47.240007H171.27845 170.77845C170.77845 46.495988 170.63974 46.142694 170.44513 45.953718 170.24616 45.76051 169.86746 45.620004 169.07845 45.620004V45.120004ZM171.27845 47.240007H171.77845V49.840005H171.27845 170.77845V47.240007H171.27845ZM171.27845 49.840005V50.340005H165.43845V49.840005 49.340005H171.27845V49.840005ZM207.68688 61.800004V62.300004H194.64687V61.800004 61.300004H207.68688V61.800004ZM194.64687 61.800004H194.14687V57.040006H194.64687 195.14687V61.800004H194.64687ZM194.64687 57.040006V56.540006H206.00687V57.040006 57.540006H194.64687V57.040006ZM206.00687 57.040006H205.50687V50.920007H206.00687 206.50687V57.040006H206.00687ZM206.00687 50.920007V51.420007H194.64687V50.920007 50.420007H206.00687V50.920007ZM194.64687 50.920007H194.14687V45.520006H194.64687 195.14687V50.920007H194.64687ZM194.64687 45.520006V45.020006H207.68688V45.520006 46.020006H194.64687V45.520006ZM207.68688 45.520006H207.18688V39.4H207.68688 208.18688V45.520006H207.68688ZM207.68688 39.4V39.9H187.44687V39.4 38.9H207.68688V39.4ZM187.44687 39.4H187.94687V67.920009H187.44687 186.94687V39.4H187.44687ZM187.44687 67.920009V67.420009H207.68688V67.920009 68.420009H187.44687V67.920009ZM207.68688 67.920009H207.18688V61.800004H207.68688 208.18688V67.920009H207.68688ZM15.480001 29.920006V29.420006C17.82394 29.420006 19.497069 28.839005 20.585894 27.777062 21.672472 26.717308 22.26 25.09755 22.26 22.840004H22.76 23.26C23.26 25.262459 22.62753 27.182702 21.284108 28.49295 19.942934 29.80101 17.976063 30.420006 15.480001 30.420006V29.920006ZM22.76 22.840004H22.26V8.480003H22.76 23.26V22.840004H22.76ZM22.76 8.480003H22.26C22.26 6.222458 21.672472 4.602699 20.585894 3.542946 19.497069 2.481003 17.82394 1.900002 15.480001 1.900002V1.400002 .900002C17.976063 .900002 19.942934 1.518997 21.284108 2.827057 22.62753 4.137306 23.26 6.057549 23.26 8.480003H22.76ZM15.480001 1.400002V1.900002H0V1.400002 .900002H15.480001V1.400002ZM0 1.400002H.5V29.920006H0-.5V1.400002H0ZM0 29.920006V29.420006H15.480001V29.920006 30.420006H0V29.920006ZM15.56 9.640007H16.060002V21.680008H15.56 15.06V9.640007H15.56ZM15.56 21.680008H16.060002C16.060002 22.511925 15.920366 23.225434 15.413006 23.703804 14.914377 24.173935 14.181242 24.300004 13.320001 24.300004V23.800004 23.300004C14.138759 23.300004 14.525623 23.166077 14.726995 22.976212 14.919635 22.794579 15.06 22.44809 15.06 21.680008H15.56ZM13.320001 23.800004V24.300004H7.200001V23.800004 23.300004H13.320001V23.800004ZM7.200001 23.800004H6.700001V7.520004H7.200001 7.700001V23.800004H7.200001ZM7.200001 7.520004V7.020004H13.320001V7.520004 8.020004H7.200001V7.520004ZM13.320001 7.520004V7.020004C14.188509 7.020004 14.919279 7.158623 15.41573 7.633797 15.918781 8.115288 16.060002 8.824165 16.060002 9.640007H15.56 15.06C15.06 8.895844 14.92122 8.544724 14.724272 8.356216 14.520721 8.161385 14.131492 8.020004 13.320001 8.020004V7.520004ZM51.97594 23.800004V24.300004H38.935937V23.800004 23.300004H51.97594V23.800004ZM38.935937 23.800004H38.435937V19.04H38.935937 39.435937V23.800004H38.935937ZM38.935937 19.04V18.54H50.295938V19.04 19.54H38.935937V19.04ZM50.295938 19.04H49.795938V12.920006H50.295938 50.795938V19.04H50.295938ZM50.295938 12.920006V13.420006H38.935937V12.920006 12.420006H50.295938V12.920006ZM38.935937 12.920006H38.435937V7.520004H38.935937 39.435937V12.920006H38.935937ZM38.935937 7.520004V7.020004H51.97594V7.520004 8.020004H38.935937V7.520004ZM51.97594 7.520004H51.47594V1.400002H51.97594 52.47594V7.520004H51.97594ZM51.97594 1.400002V1.900002H31.735938V1.400002 .900002H51.97594V1.400002ZM31.735938 1.400002H32.23594V29.920006H31.735938 31.235938V1.400002H31.735938ZM31.735938 29.920006V29.420006H51.97594V29.920006 30.420006H31.735938V29.920006ZM51.97594 29.920006H51.47594V23.800004H51.97594 52.47594V29.920006H51.97594ZM81.28 29.920006H80.78V23.800004H81.28 81.78V29.920006H81.28ZM81.28 23.800004V24.300004H73.16V23.800004 23.300004H81.28V23.800004ZM73.16 23.800004H72.66V1.400002H73.16 73.66V23.800004H73.16ZM73.16 1.400002V1.900002H65.96V1.400002 .900002H73.16V1.400002ZM65.96 1.400002H66.46V23.800004H65.96 65.46V1.400002H65.96ZM65.96 23.800004V24.300004H57.84V23.800004 23.300004H65.96V23.800004ZM57.84 23.800004H58.34V29.920006H57.84 57.34V23.800004H57.84ZM57.84 29.920006V29.420006H81.28V29.920006 30.420006H57.84V29.920006ZM108.885318 23.800004V24.300004H95.84531V23.800004 23.300004H108.885318V23.800004ZM95.84531 23.800004H95.34531V19.04H95.84531 96.34531V23.800004H95.84531ZM95.84531 19.04V18.54H107.20531V19.04 19.54H95.84531V19.04ZM107.20531 19.04H106.70531V12.920006H107.20531 107.70531V19.04H107.20531ZM107.20531 12.920006V13.420006H95.84531V12.920006 12.420006H107.20531V12.920006ZM95.84531 12.920006H95.34531V7.520004H95.84531 96.34531V12.920006H95.84531ZM95.84531 7.520004V7.020004H108.885318V7.520004 8.020004H95.84531V7.520004ZM108.885318 7.520004H108.385318V1.400002H108.885318 109.385318V7.520004H108.885318ZM108.885318 1.400002V1.900002H88.64531V1.400002 .900002H108.885318V1.400002ZM88.64531 1.400002H89.14531V29.920006H88.64531 88.14531V1.400002H88.64531ZM88.64531 29.920006V29.420006H108.885318V29.920006 30.420006H88.64531V29.920006ZM108.885318 29.920006H108.385318V23.800004H108.885318 109.385318V29.920006H108.885318ZM123.54938 1V1.5C121.22646 1.5 119.56337 2.080475 118.47922 3.142227 117.39693 4.202148 116.80937 5.822441 116.80937 8.080002H116.30937 115.80937C115.80937 5.657562 116.44182 3.737854 117.77953 2.427773 119.11539 1.119522 121.07229 .5 123.54938 .5V1ZM116.30937 8.080002H116.80937V23.240006H116.30937 115.80937V8.080002H116.30937ZM116.30937 23.240006H116.80937C116.80937 25.497567 117.39693 27.117859 118.47922 28.17778 119.56337 29.239533 121.22646 29.820008 123.54938 29.820008V30.320008 30.820008C121.07229 30.820008 119.11539 30.200486 117.77953 28.892235 116.44182 27.582154 115.80937 25.662446 115.80937 23.240006H116.30937ZM123.54938 30.320008V29.820008H132.54938V30.320008 30.820008H123.54938V30.320008ZM132.54938 30.320008V29.820008C134.87229 29.820008 136.53594 29.239518 137.62029 28.182045 138.70243 27.12674 139.28937 25.516449 139.28937 23.280007H139.78937 140.28937C140.28937 25.683564 139.65633 27.593277 138.31847 28.897973 136.98282 30.2005 135.02648 30.820008 132.54938 30.820008V30.320008ZM139.78937 23.280007H139.28937C139.28937 22.943665 139.28646 22.889855 139.2643 22.80127L139.74938 22.68 140.23445 22.558732C140.2923 22.790146 140.28937 22.976349 140.28937 23.280007H139.78937ZM139.74938 22.68 139.69112 23.176598 132.53112 22.336602 132.58937 21.840004 132.64763 21.343407 139.80764 22.183403 139.74938 22.68ZM132.58937 21.840004H133.08937V22.080002H132.58937 132.08937V21.840004H132.58937ZM132.58937 22.080002H133.08937C133.08937 22.912087 132.94965 23.62339 132.44998 24.101326 131.9567 24.573174 131.23296 24.700005 130.38938 24.700005V24.200005 23.700005C131.18579 23.700005 131.56206 23.566834 131.75876 23.378685 131.9491 23.196618 132.08937 22.847924 132.08937 22.080002H132.58937ZM130.38938 24.200005V24.700005H125.70937V24.200005 23.700005H130.38938V24.200005ZM125.70937 24.200005V24.700005C124.86579 24.700005 124.14206 24.573174 123.648769 24.101326 123.1491 23.62339 123.00938 22.912087 123.00938 22.080002H123.50938 124.00938C124.00938 22.847924 124.14965 23.196618 124.33999 23.378685 124.53669 23.566834 124.91296 23.700005 125.70937 23.700005V24.200005ZM123.50938 22.080002H123.00938V9.240005H123.50938 124.00938V22.080002H123.50938ZM123.50938 9.240005H123.00938C123.00938 8.424026 123.15067 7.717316 123.64606 7.23629 124.137088 6.759499 124.85839 6.620003 125.70937 6.620003V7.120003 7.620003C124.92036 7.620003 124.541667 7.760513 124.34269 7.95372 124.14808 8.142693 124.00938 8.495987 124.00938 9.240005H123.50938ZM125.70937 7.120003V6.620003H130.38938V7.120003 7.620003H125.70937V7.120003ZM130.38938 7.120003V6.620003C131.24036 6.620003 131.96167 6.759499 132.45269 7.23629 132.94808 7.717316 133.08937 8.424026 133.08937 9.240005H132.58937 132.08937C132.08937 8.495987 131.95067 8.142693 131.75606 7.95372 131.55709 7.760513 131.17839 7.620003 130.38938 7.620003V7.120003ZM132.58937 9.240005H133.08937V9.520004H132.58937 132.08937V9.240005H132.58937ZM132.58937 9.520004 132.52838 9.023735 139.68839 8.143738 139.74938 8.640007 139.81037 9.136276 132.65036 10.016273 132.58937 9.520004ZM139.74938 8.640007 139.2643 8.518738C139.27787 8.4645 139.28247 8.434784 139.28534 8.388824 139.28913 8.328217 139.28937 8.247047 139.28937 8.080002H139.78937 140.28937C140.28937 8.390694 140.29175 8.532036 140.23445 8.761276L139.74938 8.640007ZM139.78937 8.080002H139.28937C139.28937 5.822441 138.70182 4.202148 137.61952 3.142227 136.53539 2.080475 134.87229 1.5 132.54938 1.5V1 .5C135.02648 .5 136.98337 1.119522 138.31922 2.42778 139.65692 3.737854 140.28937 5.657562 140.28937 8.080002H139.78937ZM132.54938 1V1.5H123.54938V1 .5H132.54938V1ZM169.57375 29.920006H169.07375V23.800004H169.57375 170.07375V29.920006H169.57375ZM169.57375 23.800004V24.300004H161.45375V23.800004 23.300004H169.57375V23.800004ZM161.45375 23.800004H160.95375V1.400002H161.45375 161.95375V23.800004H161.45375ZM161.45375 1.400002V1.900002H154.25376V1.400002 .900002H161.45375V1.400002ZM154.25376 1.400002H154.75376V23.800004H154.25376 153.75376V1.400002H154.25376ZM154.25376 23.800004V24.300004H146.13375V23.800004 23.300004H154.25376V23.800004ZM146.13375 23.800004H146.63375V29.920006H146.13375 145.63375V23.800004H146.13375ZM146.13375 29.920006V29.420006H169.57375V29.920006 30.420006H146.13375V29.920006ZM176.93906 1.400002H177.43906V29.920006H176.93906 176.43906V1.400002H176.93906ZM176.93906 29.920006V29.420006H184.13906V29.920006 30.420006H176.93906V29.920006ZM184.13906 29.920006H183.63906V1.400002H184.13906 184.63906V29.920006H184.13906ZM184.13906 1.400002V1.900002H176.93906V1.400002 .900002H184.13906V1.400002ZM209.31969 30.320008V29.820008C211.6426 29.820008 213.3057 29.239533 214.38985 28.17778 215.47214 27.117859 216.0597 25.497567 216.0597 23.240006H216.5597 217.0597C217.0597 25.662446 216.42725 27.582154 215.08954 28.892235 213.75368 30.200486 211.79679 30.820008 209.31969 30.820008V30.320008ZM216.5597 23.240006H216.0597V8.080002H216.5597 217.0597V23.240006H216.5597ZM216.5597 8.080002H216.0597C216.0597 5.822441 215.47214 4.202148 214.38985 3.142227 213.3057 2.080475 211.6426 1.5 209.31969 1.5V1 .5C211.79679 .5 213.75368 1.119522 215.08954 2.427773 216.42725 3.737854 217.0597 5.657562 217.0597 8.080002H216.5597ZM209.31969 1V1.5H200.31969V1 .5H209.31969V1ZM200.31969 1V1.5C197.99678 1.5 196.33368 2.080475 195.24954 3.142227 194.16725 4.202148 193.5797 5.822441 193.5797 8.080002H193.0797 192.5797C192.5797 5.657562 193.21215 3.737854 194.54985 2.42778 195.8857 1.119522 197.84259 .5 200.31969 .5V1ZM193.0797 8.080002H193.5797V23.240006H193.0797 192.5797V8.080002H193.0797ZM193.0797 23.240006H193.5797C193.5797 25.497567 194.16725 27.117859 195.24954 28.17778 196.33368 29.239533 197.99678 29.820008 200.31969 29.820008V30.320008 30.820008C197.8426 30.820008 195.8857 30.200486 194.54985 28.892235 193.21215 27.582154 192.5797 25.662446 192.5797 23.240006H193.0797ZM200.31969 30.320008V29.820008H209.31969V30.320008 30.820008H200.31969V30.320008ZM209.3597 22.080002H209.8597C209.8597 22.912087 209.71997 23.62339 209.2203 24.101326 208.72702 24.573174 208.00328 24.700005 207.1597 24.700005V24.200005 23.700005C207.95612 23.700005 208.33238 23.566834 208.52909 23.378685 208.71942 23.196618 208.8597 22.847924 208.8597 22.080002H209.3597ZM207.1597 24.200005V24.700005H202.47969V24.200005 23.700005H207.1597V24.200005ZM202.47969 24.200005V24.700005C201.63611 24.700005 200.91239 24.573174 200.41909 24.101326 199.91942 23.62339 199.7797 22.912087 199.7797 22.080002H200.2797 200.7797C200.7797 22.847924 200.91997 23.196618 201.1103 23.378685 201.307 23.566834 201.68328 23.700005 202.47969 23.700005V24.200005ZM200.2797 22.080002H199.7797V9.240005H200.2797 200.7797V22.080002H200.2797ZM200.2797 9.240005H199.7797C199.7797 8.424026 199.92099 7.717316 200.41638 7.23629 200.9074 6.759499 201.62871 6.620003 202.47969 6.620003V7.120003 7.620003C201.69068 7.620003 201.31198 7.760513 201.113 7.95372 200.9184 8.142693 200.7797 8.495987 200.7797 9.240005H200.2797ZM202.47969 7.120003V6.620003H207.1597V7.120003 7.620003H202.47969V7.120003ZM207.1597 7.120003V6.620003C208.01068 6.620003 208.732 6.759499 209.223 7.23629 209.7184 7.717316 209.8597 8.424026 209.8597 9.240005H209.3597 208.8597C208.8597 8.495987 208.721 8.142693 208.52639 7.95372 208.32741 7.760513 207.94872 7.620003 207.1597 7.620003V7.120003ZM209.3597 9.240005H209.8597V22.080002H209.3597 208.8597V9.240005H209.3597ZM242.64812 29.920006V29.420006H249.84813V29.920006 30.420006H242.64812V29.920006ZM249.84813 29.920006H249.34813V1.400002H249.84813 250.34813V29.920006H249.84813ZM249.84813 1.400002V1.900002H242.84813V1.400002 .900002H249.84813V1.400002ZM242.84813 1.400002 243.27414 1.661766 233.07413 18.261773 232.64812 18.000008 232.2221 17.738244 242.42212 1.138237 242.84813 1.400002ZM232.64812 18.000008H232.14812V1.400002H232.64812 233.14812V18.000008H232.64812ZM232.64812 1.400002V1.900002H225.44812V1.400002 .900002H232.64812V1.400002ZM225.44812 1.400002H225.94812V29.920006H225.44812 224.94812V1.400002H225.44812ZM225.44812 29.920006V29.420006H232.40813V29.920006 30.420006H225.44812V29.920006ZM232.40813 29.920006 231.98258 29.657502 242.22257 13.057503 242.64812 13.320007 243.07367 13.582512 232.83368 30.18251 232.40813 29.920006ZM242.64812 13.320007H243.14812V29.920006H242.64812 242.14812V13.320007H242.64812Z" fill="#0873bb"/>
<path transform="matrix(1,0,0,-1,792.48,106.935009)" d="M20.240002 99.8H7.200001V95.04H18.56V88.920009H7.200001V83.520008H20.240002V77.4H0V105.920009H20.240002V99.8Z" fill="#0873bb"/>
<path transform="matrix(1,0,0,-1,792.48,106.935009)" d="M47.224065 77.4 45.384065 83.520008H35.30406L33.46406 77.4H26.104062L35.10406 105.920009H45.62406L54.624067 77.4H47.224065ZM37.184064 89.68001H43.544065L40.384065 100.240009 37.184064 89.68001Z" fill="#0873bb"/>
<path transform="matrix(1,0,0,-1,792.48,106.935009)" d="M79.4275 77.4 72.4675 87.520008H69.1875V77.4H61.9875V105.920009H77.4675C82.307498 105.920009 84.7475 103.520008 84.7475 98.840007V94.560009C84.7475 91.04001 83.387508 88.840007 80.6275 87.96001L87.8275 77.4H79.4275ZM69.1875 99.8V93.64001H75.3075C76.9875 93.64001 77.5475 94.16 77.5475 95.72V97.68001C77.5475 99.28001 76.9875 99.8 75.3075 99.8H69.1875Z" fill="#0873bb"/>
<path transform="matrix(1,0,0,-1,792.48,106.935009)" d="M102.44687 83.520008H115.046878V77.4H95.24687V105.920009H102.44687V83.520008Z" fill="#0873bb"/>
<path transform="matrix(1,0,0,-1,792.48,106.935009)" d="M143.56125 105.920009 133.36125 87.12V77.4H126.12125V87.12L115.92125 105.920009H123.92125L129.76125 94.96001 135.56125 105.920009H143.56125Z" fill="#0873bb"/>
<path transform="matrix(1,0,0,-1,792.48,106.935009)" d="M7.200001 45.520006H19.800002V39.4H0V67.920009H7.200001V45.520006Z" fill="#0873bb"/>
<path transform="matrix(1,0,0,-1,792.48,106.935009)" d="M47.44469 61.800004H34.404687V57.040006H45.764688V50.920007H34.404687V45.520006H47.44469V39.4H27.204688V67.920009H47.44469V61.800004Z" fill="#0873bb"/>
<path transform="matrix(1,0,0,-1,792.48,106.935009)" d="M74.42875 39.4 72.58875 45.520006H62.50875L60.66875 39.4H53.30875L62.30875 67.920009H72.82875L81.82875 39.4H74.42875ZM64.38875 51.680006H70.74875L67.58875 62.240007 64.38875 51.680006Z" fill="#0873bb"/>
<path transform="matrix(1,0,0,-1,792.48,106.935009)" d="M106.552188 39.4 98.872188 50.760004H96.39218V39.4H89.192188V67.920009H96.39218V56.920007H98.872188L106.11218 67.920009H114.47218L105.192188 53.800004 114.95219 39.4H106.552188Z" fill="#0873bb"/>
<path transform="matrix(1,0,0,-1,792.48,106.935009)" d="M141.49437 39.4 139.65438 45.520006H129.57437L127.734378 39.4H120.374378L129.37438 67.920009H139.89438L148.89438 39.4H141.49437ZM131.45438 51.680006H137.81438L134.65438 62.240007 131.45438 51.680006Z" fill="#0873bb"/>
<path transform="matrix(1,0,0,-1,792.48,106.935009)" d="M165.43845 49.840005V56.000005H178.47844V46.080007C178.47844 41.4 176.03844 39 171.23844 39H162.23844C157.43843 39 154.99845 41.4 154.99845 46.080007V61.240007C154.99845 65.920009 157.43843 68.32001 162.23844 68.32001H171.23844C176.03844 68.32001 178.47844 65.920009 178.47844 61.280008 178.47844 60.960008 178.47844 60.840005 178.43845 60.680006L171.27845 59.840005V60.080007C171.27845 61.680009 170.71845 62.200006 169.07845 62.200006H164.39844C162.75844 62.200006 162.19844 61.680009 162.19844 60.080007V47.240007C162.19844 45.680006 162.75844 45.120004 164.39844 45.120004H169.07845C170.71845 45.120004 171.27845 45.680006 171.27845 47.240007V49.840005H165.43845Z" fill="#0873bb"/>
<path transform="matrix(1,0,0,-1,792.48,106.935009)" d="M207.68688 61.800004H194.64687V57.040006H206.00687V50.920007H194.64687V45.520006H207.68688V39.4H187.44687V67.920009H207.68688V61.800004Z" fill="#0873bb"/>
<path transform="matrix(1,0,0,-1,792.48,106.935009)" d="M15.480001 29.920006C20.320002 29.920006 22.76 27.520005 22.76 22.840004V8.480003C22.76 3.800003 20.320002 1.400002 15.480001 1.400002H0V29.920006H15.480001ZM15.56 9.640007V21.680008C15.56 23.280007 15 23.800004 13.320001 23.800004H7.200001V7.520004H13.320001C15 7.520004 15.56 8.080009 15.56 9.640007Z" fill="#0873bb"/>
<path transform="matrix(1,0,0,-1,792.48,106.935009)" d="M51.97594 23.800004H38.935937V19.04H50.295938V12.920006H38.935937V7.520004H51.97594V1.400002H31.735938V29.920006H51.97594V23.800004Z" fill="#0873bb"/>
<path transform="matrix(1,0,0,-1,792.48,106.935009)" d="M81.28 29.920006V23.800004H73.16V1.400002H65.96V23.800004H57.84V29.920006H81.28Z" fill="#0873bb"/>
<path transform="matrix(1,0,0,-1,792.48,106.935009)" d="M108.885318 23.800004H95.84531V19.04H107.20531V12.920006H95.84531V7.520004H108.885318V1.400002H88.64531V29.920006H108.885318V23.800004Z" fill="#0873bb"/>
<path transform="matrix(1,0,0,-1,792.48,106.935009)" d="M123.54938 1C118.749378 1 116.30937 3.400002 116.30937 8.080002V23.240006C116.30937 27.920006 118.749378 30.320008 123.54938 30.320008H132.54938C137.34938 30.320008 139.78937 27.920006 139.78937 23.280007 139.78937 22.960007 139.78937 22.840004 139.74938 22.68L132.58937 21.840004V22.080002C132.58937 23.68 132.02938 24.200005 130.38938 24.200005H125.70937C124.069377 24.200005 123.50938 23.68 123.50938 22.080002V9.240005C123.50938 7.680008 124.069377 7.120003 125.70937 7.120003H130.38938C132.02938 7.120003 132.58937 7.680008 132.58937 9.240005V9.520004L139.74938 8.640007C139.78937 8.480003 139.78937 8.400002 139.78937 8.080002 139.78937 3.400002 137.34938 1 132.54938 1H123.54938Z" fill="#0873bb"/>
<path transform="matrix(1,0,0,-1,792.48,106.935009)" d="M169.57375 29.920006V23.800004H161.45375V1.400002H154.25376V23.800004H146.13375V29.920006H169.57375Z" fill="#0873bb"/>
<path transform="matrix(1,0,0,-1,792.48,106.935009)" d="M176.93906 1.400002V29.920006H184.13906V1.400002H176.93906Z" fill="#0873bb"/>
<path transform="matrix(1,0,0,-1,792.48,106.935009)" d="M209.31969 30.320008C214.11969 30.320008 216.5597 27.920006 216.5597 23.240006V8.080002C216.5597 3.400002 214.11969 1 209.31969 1H200.31969C195.51969 1 193.0797 3.400002 193.0797 8.080002V23.240006C193.0797 27.920006 195.51969 30.320008 200.31969 30.320008H209.31969ZM209.3597 22.080002C209.3597 23.68 208.7997 24.200005 207.1597 24.200005H202.47969C200.83969 24.200005 200.2797 23.68 200.2797 22.080002V9.240005C200.2797 7.680008 200.83969 7.120003 202.47969 7.120003H207.1597C208.7997 7.120003 209.3597 7.680008 209.3597 9.240005V22.080002Z" fill="#0873bb"/>
<path transform="matrix(1,0,0,-1,792.48,106.935009)" d="M242.64812 29.920006H249.84813V1.400002H242.84813L232.64812 18.000008V1.400002H225.44812V29.920006H232.40813L242.64812 13.320007V29.920006Z" fill="#0873bb"/>
<path transform="matrix(1,0,0,-1,132.84745,109)" d="M26.361607 39.309679V40.309679H25.361607V39.309679H26.361607ZM26.361607 3.446106V2.446106H27.361607V3.446106H26.361607ZM0 3.446106H-1V2.446106H0V3.446106ZM0 106.55389V107.55389H-1V106.55389H0ZM26.361607 84.428379V85.428379H25.361607V84.428379H26.361607ZM26.361607 61.435197H25.361607V60.435197H26.361607V61.435197ZM159.96596 3.446106 159.14539 2.874565 159.4438 2.446106H159.96596V3.446106ZM134.48308 40.032747 135.30365 40.60428 135.00522 41.032747H134.48308V40.032747ZM122.47391 40.032747V41.032747H121.47391V40.032747H122.47391ZM122.47391 3.446106V2.446106H123.47391V3.446106H122.47391ZM96.112308 3.446106H95.112308V2.446106H96.112308V3.446106ZM96.112308 106.55389V107.55389H95.112308V106.55389H96.112308ZM164.35956 41.62346 164.05927 42.57731 162.7667 42.170366 163.53668 41.055253 164.35956 41.62346ZM190.72118 3.446106V2.446106H192.6269L191.54407 4.014313 190.72118 3.446106ZM122.47391 84.428379V85.428379H121.47391V84.428379H122.47391ZM122.47391 62.15825H121.47391V61.15825H122.47391V62.15825ZM203.0942 3.446106H202.0942V2.446106H203.0942V3.446106ZM203.0942 106.55389V107.55389H202.0942V106.55389H203.0942ZM229.45578 106.55389H230.45578V107.55389H229.45578V106.55389ZM229.45578 3.446106V2.446106H230.45578V3.446106H229.45578ZM311.54518 106.55389V107.55389H310.54518V106.55389H311.54518ZM337.9068 106.55389H338.9068V107.55389H337.9068V106.55389ZM337.9068 3.446106V2.446106H338.9068V3.446106H337.9068ZM312.27748 3.446106 311.42845 2.917763 311.72193 2.446106H312.27748V3.446106ZM274.93186 63.45975 275.78089 63.98809 273.93186 66.95945V63.45975H274.93186ZM274.93186 3.446106V2.446106H275.93186V3.446106H274.93186ZM248.57024 3.446106H247.57024V2.446106H248.57024V3.446106ZM248.57024 106.55389V107.55389H247.57024V106.55389H248.57024ZM274.05314 106.55389 274.9012 107.08372 274.6075 107.55389H274.05314V106.55389ZM311.54518 46.540246 310.69709 46.01041 312.54518 43.052148V46.540246H311.54518ZM354.93544 29.620736 354.81495 30.61345 354.18946 30.537545 353.98796 29.940583 354.93544 29.620736ZM381.15058 32.802179H382.15058V33.930879L381.0301 33.79489 381.15058 32.802179ZM404.2902 41.768075 404.4367 42.757287 404.43409 42.757669 404.2902 41.768075ZM380.4183 45.238744 380.56217 46.22834 380.56019 46.228628 380.4183 45.238744ZM440.61064 80.37926 440.7257 79.3859 441.41078 79.465259 441.58006 80.133808 440.61064 80.37926ZM414.39549 77.34242H413.39549V76.219898L414.51057 76.34907 414.39549 77.34242ZM392.28105 68.81036 392.42405 69.800098 392.42073 69.80057 392.28105 68.81036ZM416.29939 65.3397 416.15638 64.349979 416.1586 64.349658 416.29939 65.3397ZM548.12576 106.55389 549.00216 106.072338 549.81619 107.55389H548.12576V106.55389ZM510.7801 38.586626 509.9037 39.068185 509.7801 38.84326V38.586626H510.7801ZM510.7801 3.446106V2.446106H511.7801V3.446106H510.7801ZM484.27207 3.446106H483.27207V2.446106H484.27207V3.446106ZM484.27207 38.586626H485.27207V38.84326L485.14848 39.068185 484.27207 38.586626ZM446.92643 106.55389V107.55389H445.23597L446.05003 106.072338 446.92643 106.55389ZM476.2171 106.55389 477.09715 107.02879 476.81379 107.55389H476.2171V106.55389ZM497.5993 66.93042 496.71925 66.45552 497.60234 64.81911 498.48069 66.45804 497.5993 66.93042ZM518.835 106.55389V107.55389H518.23648L517.9537 107.02627 518.835 106.55389ZM553.73898 29.620736 553.61849 30.61345 552.99307 30.537545 552.7915 29.940583 553.73898 29.620736ZM579.95419 32.802179H580.95419V33.930879L579.8337 33.79489 579.95419 32.802179ZM603.09378 41.768075 603.24026 42.757287 603.2376 42.757669 603.09378 41.768075ZM579.22189 45.238744 579.3658 46.22834 579.3638 46.228628 579.22189 45.238744ZM639.4142 80.37926 639.5293 79.3859 640.21438 79.465259 640.3836 80.133808 639.4142 80.37926ZM613.19906 77.34242H612.19906V76.219898L613.3141 76.34907 613.19906 77.34242ZM591.08456 68.81036 591.2276 69.800098 591.22427 69.80057 591.08456 68.81036ZM615.1029 65.3397 614.9599 64.349979 614.96218 64.349658 615.1029 65.3397ZM56.384546 106.55389V105.55389C65.020679 105.55389 71.35565 103.42213 75.53382 99.38175 79.70598 95.3472 81.8926 89.24921 81.8926 80.9577H82.8926 83.8926C83.8926 89.58572 81.612407 96.28582 76.924129 100.81947 72.24187 105.34732 65.322818 107.55389 56.384546 107.55389V106.55389ZM82.8926 80.9577H81.8926V64.90586H82.8926 83.8926V80.9577H82.8926ZM82.8926 64.90586H81.8926C81.8926 56.614366 79.70598 50.516378 75.53382 46.48182 71.35565 42.441446 65.020679 40.309679 56.384546 40.309679V39.309679 38.309679C65.322818 38.309679 72.24187 40.51625 76.924129 45.044095 81.612407 49.57775 83.8926 56.277856 83.8926 64.90586H82.8926ZM56.384546 39.309679V40.309679H26.361607V39.309679 38.309679H56.384546V39.309679ZM26.361607 39.309679H25.361607V3.446106H26.361607 27.361607V39.309679H26.361607ZM26.361607 3.446106V4.446106H0V3.446106 2.446106H26.361607V3.446106ZM0 3.446106H1V106.55389H0-1V3.446106H0ZM0 106.55389V105.55389H56.384546V106.55389 107.55389H0V106.55389ZM56.531 69.09959H57.531V76.763988H56.531 55.531V69.09959H56.531ZM56.531 76.763988H57.531C57.531 79.722888 57.01801 82.003719 55.44189 83.49234 53.88233 84.965328 51.5235 85.428379 48.47606 85.428379V84.428379 83.428379C51.43321 83.428379 53.101846 82.95145 54.06861 82.038349 55.01881 81.14089 55.531 79.58952 55.531 76.763988H56.531ZM48.47606 84.428379V85.428379H26.361607V84.428379 83.428379H48.47606V84.428379ZM26.361607 84.428379H25.361607V61.435197H26.361607 27.361607V84.428379H26.361607ZM26.361607 61.435197V60.435197H48.47606V61.435197 62.435197H26.361607V61.435197ZM48.47606 61.435197V60.435197C51.538118 60.435197 53.8922 60.939577 55.44733 62.430635 57.01483 63.93355 57.531 66.20516 57.531 69.09959H56.531 55.531C55.531 66.35417 55.02199 64.793598 54.063169 63.87427 53.091978 62.943098 51.418596 62.435197 48.47606 62.435197V61.435197ZM159.96596 3.446106 160.78653 4.017647 135.30365 40.60428 134.48308 40.032747 133.6625 39.461206 159.14539 2.874565 159.96596 3.446106ZM134.48308 40.032747V41.032747H122.47391V40.032747 39.032747H134.48308V40.032747ZM122.47391 40.032747H121.47391V3.446106H122.47391 123.47391V40.032747H122.47391ZM122.47391 3.446106V4.446106H96.112308V3.446106 2.446106H122.47391V3.446106ZM96.112308 3.446106H97.112308V106.55389H96.112308 95.112308V3.446106H96.112308ZM96.112308 106.55389V105.55389H152.78977V106.55389 107.55389H96.112308V106.55389ZM152.78977 106.55389V105.55389C161.50115 105.55389 167.8728 103.421108 172.06867 99.380329 176.2577 95.3461 178.44426 89.24917 178.44426 80.9577H179.44426 180.44426C180.44426 89.585758 178.164 96.28691 173.45601 100.82091 168.75482 105.34834 161.79923 107.55389 152.78977 107.55389V106.55389ZM179.44426 80.9577H178.44426V65.484317H179.44426 180.44426V80.9577H179.44426ZM179.44426 65.484317H178.44426C178.44426 59.2442 177.22264 54.277406 174.84555 50.508199 172.4795 46.756505 168.91565 44.106245 164.05927 42.57731L164.35956 41.62346 164.65987 40.669618C169.90876 42.32213 173.88726 45.2394 176.53723 49.441324 179.17618 53.62573 180.44426 58.998636 180.44426 65.484317H179.44426ZM164.35956 41.62346 163.53668 41.055253 189.89829 2.877899 190.72118 3.446106 191.54407 4.014313 165.18245 42.191667 164.35956 41.62346ZM190.72118 3.446106V4.446106H159.96596V3.446106 2.446106H190.72118V3.446106ZM122.47391 84.428379H121.47391V62.15825H122.47391 123.47391V84.428379H122.47391ZM122.47391 62.15825V61.15825H144.88127V62.15825 63.15825H122.47391V62.15825ZM144.88127 62.15825V61.15825C147.99808 61.15825 150.38748 61.62025 151.96442 63.06613 153.56746 64.53595 154.08266 66.78576 154.08266 69.67804H153.08266 152.08266C152.08266 66.93047 151.57268 65.420398 150.61278 64.540279 149.62679 63.636224 147.9155 63.15825 144.88127 63.15825V62.15825ZM153.08266 69.67804H154.08266V76.763988H153.08266 152.08266V69.67804H153.08266ZM153.08266 76.763988H154.08266C154.08266 79.7226 153.56983 82.00783 151.97 83.49725 150.39156 84.96679 147.99735 85.428379 144.88127 85.428379V84.428379 83.428379C147.91623 83.428379 149.62271 82.94998 150.6072 82.03344 151.57032 81.13679 152.08266 79.58981 152.08266 76.763988H153.08266ZM144.88127 84.428379V85.428379H122.47391V84.428379 83.428379H144.88127V84.428379ZM203.0942 3.446106H204.0942V106.55389H203.0942 202.0942V3.446106H203.0942ZM203.0942 106.55389V105.55389H229.45578V106.55389 107.55389H203.0942V106.55389ZM229.45578 106.55389H228.45578V3.446106H229.45578 230.45578V106.55389H229.45578ZM229.45578 3.446106V4.446106H203.0942V3.446106 2.446106H229.45578V3.446106ZM311.54518 106.55389V105.55389H337.9068V106.55389 107.55389H311.54518V106.55389ZM337.9068 106.55389H336.9068V3.446106H337.9068 338.9068V106.55389H337.9068ZM337.9068 3.446106V4.446106H312.27748V3.446106 2.446106H337.9068V3.446106ZM312.27748 3.446106 313.1265 3.974449 275.78089 63.98809 274.93186 63.45975 274.0828 62.93141 311.42845 2.917763 312.27748 3.446106ZM274.93186 63.45975H273.93186V3.446106H274.93186 275.93186V63.45975H274.93186ZM274.93186 3.446106V4.446106H248.57024V3.446106 2.446106H274.93186V3.446106ZM248.57024 3.446106H249.57024V106.55389H248.57024 247.57024V3.446106H248.57024ZM248.57024 106.55389V105.55389H274.05314V106.55389 107.55389H248.57024V106.55389ZM274.05314 106.55389 273.20503 106.024059 310.69709 46.01041 311.54518 46.540246 312.39329 47.070077 274.9012 107.08372 274.05314 106.55389ZM311.54518 46.540246H312.54518V106.55389H311.54518 310.54518V46.540246H311.54518ZM381.44349 2V3C372.80738 3 366.43363 5.131813 362.21803 9.174988 358.00984 13.211044 355.78898 19.309021 355.78898 27.596184H354.78898 353.78898C353.78898 18.963837 356.1082 12.263718 360.83363 7.73156 365.55168 3.20652 372.5052 1 381.44349 1V2ZM354.78898 27.596184H355.78898C355.78898 28.33899 355.78959 28.692353 355.805 28.920716 355.81645 29.090065 355.83164 29.149094 355.88288 29.300889L354.93544 29.620736 353.98796 29.940583C353.7775 29.3172 353.78898 28.98497 353.78898 27.596184H354.78898ZM354.93544 29.620736 355.05589 28.628014 381.27107 31.809464 381.15058 32.802179 381.0301 33.79489 354.81495 30.61345 354.93544 29.620736ZM381.15058 32.802179H380.15058V31.789902H381.15058 382.15058V32.802179H381.15058ZM381.15058 31.789902H380.15058C380.15058 28.895714 380.66664 26.619782 382.25776 25.11599 383.83198 23.628197 386.22157 23.125504 389.35197 23.125504V24.125504 25.125504C386.33137 25.125504 384.62025 25.635094 383.6315 26.569542 382.6597 27.487984 382.15058 29.04425 382.15058 31.789902H381.15058ZM389.35197 24.125504V23.125504H406.7799V24.125504 25.125504H389.35197V24.125504ZM406.7799 24.125504V23.125504C409.84199 23.125504 412.19606 23.629883 413.7512 25.120949 415.3187 26.623864 415.83485 28.895478 415.83485 31.789902H414.83485 413.83485C413.83485 29.044487 413.32585 27.483902 412.36705 26.564583 411.39585 25.633408 409.72245 25.125504 406.7799 25.125504V24.125504ZM414.83485 31.789902H415.83485V34.537515H414.83485 413.83485V31.789902H414.83485ZM414.83485 34.537515H415.83485C415.83485 35.77688 415.72328 36.884759 415.35847 37.850809 414.98133 38.84951 414.3536 39.644723 413.42106 40.280534 412.51579 40.897745 411.3464 41.349184 409.8978 41.727815 408.4435 42.107927 406.64289 42.43052 404.4367 42.75728L404.2902 41.768075 404.14369 40.778863C406.33113 40.454874 408.04539 40.1448 409.39204 39.792818 410.74436 39.439355 411.66194 39.059274 412.2944 38.62806 412.8996 38.21544 413.26048 37.7453 413.48744 37.14424 413.72676 36.51053 413.83485 35.684236 413.83485 34.537515H414.83485ZM404.2902 41.768075 404.43409 42.757669 380.56217 46.22834 380.4183 45.238744 380.2744 44.249147 404.14634 40.778474 404.2902 41.768075ZM380.4183 45.238744 380.56019 46.228628C371.53828 47.521787 365.49415 49.726434 361.69563 53.27258 357.9437 56.775236 356.22834 61.7382 356.22834 68.95497H355.22834 354.22834C354.22834 61.421415 356.0278 55.827764 360.3308 51.810636 364.58726 47.837 371.1381 45.5587 380.2764 44.24886L380.4183 45.238744ZM355.22834 68.95497H356.22834V82.40382H355.22834 354.22834V68.95497H355.22834ZM355.22834 82.40382H356.22834C356.22834 90.69098 358.44917 96.788959 362.65739 100.82501 366.873 104.86819 373.24674 107 381.88285 107V108 109C372.94456 109 365.99104 106.79348 361.27299 102.26844 356.54753 97.73628 354.22834 91.03616 354.22834 82.40382H355.22834ZM381.88285 108V107H414.24906V108 109H381.88285V108ZM414.24906 108V107C422.88514 107 429.22123 104.86822 433.39985 100.844478 437.57173 96.8272 439.7571 90.76536 439.7571 82.54843H440.7571 441.7571C441.7571 91.1064 439.47566 97.77034 434.7871 102.28513 430.1053 106.79345 423.18736 109 414.24906 109V108ZM440.7571 82.54843H439.7571C439.7571 81.08357 439.75224 81.0631 439.64125 80.62471L440.61064 80.37926 441.58006 80.133808C441.76197 80.8523 441.7571 81.12105 441.7571 82.54843H440.7571ZM440.61064 80.37926 440.49559 81.37262 414.2804 78.335788 414.39549 77.34242 414.51057 76.34907 440.7257 79.3859 440.61064 80.37926ZM414.39549 77.34242H415.39549V78.21009H414.39549 413.39549V77.34242H414.39549ZM414.39549 78.21009H415.39549C415.39549 81.169 414.88249 83.44983 413.30638 84.93845 411.74684 86.411449 409.388 86.87449 406.34056 86.87449V85.87449 84.87449C409.2977 84.87449 410.96635 84.39756 411.9331 83.48447 412.8833 82.587009 413.39549 81.03564 413.39549 78.21009H414.39549ZM406.34056 85.87449V86.87449H390.08424V85.87449 84.87449H406.34056V85.87449ZM390.08424 85.87449V86.87449C386.88276 86.87449 384.43049 86.37224 382.804 84.89821 381.149 83.398319 380.58995 81.119579 380.58995 78.21009H381.58995 382.58995C382.58995 80.94045 383.1293 82.49391 384.14707 83.41625 385.19334 84.36446 386.9882 84.87449 390.08424 84.87449V85.87449ZM381.58995 78.21009H380.58995V75.89632H381.58995 382.58995V78.21009H381.58995ZM381.58995 75.89632H380.58995C380.58995 74.63794 380.6803 73.5221 381.02055 72.563449 381.37638 71.560779 381.9883 70.775669 382.928 70.16082 383.83149 69.569667 385.01164 69.15311 386.48677 68.80232 387.97019 68.44956 389.83119 68.14604 392.14137 67.82017L392.28105 68.81036 392.42073 69.80057C390.1176 70.12544 388.33558 70.41844 386.94944 70.74806 385.555 71.079669 384.63905 71.43135 384.02305 71.8344 383.44328 72.21376 383.11247 72.6488 382.90538 73.232349 382.68266 73.85989 382.58995 74.696308 382.58995 75.89632H381.58995ZM392.28105 68.81036 392.138 67.82065 416.15638 64.349979 416.29939 65.3397 416.44239 66.32942 392.42405 69.80009 392.28105 68.81036ZM416.29939 65.3397 416.1586 64.349658C425.25526 63.056219 431.21614 60.85189 434.91874 57.280897 438.58006 53.749685 440.19645 48.71681 440.19645 41.334238H441.19645 442.19645C442.19645 48.991235 440.51765 54.659589 436.30714 58.720464 432.13786 62.741559 425.6502 65.02017 416.44017 66.32974L416.29939 65.3397ZM441.19645 41.334238H440.19645V27.596184H441.19645 442.19645V41.334238H441.19645ZM441.19645 27.596184H440.19645C440.19645 19.30468 438.00984 13.206696 433.83769 9.172134 429.6595 5.13176 423.32453 3 414.6884 3V2 1C423.62666 1 430.54573 3.206573 435.22798 7.734413 439.91627 12.268066 442.19645 18.96817 442.19645 27.596184H441.19645ZM414.6884 2V3H381.44349V2 1H414.6884V2ZM548.12576 106.55389 547.24929 107.035449 509.9037 39.068185 510.7801 38.586626 511.6565 38.105066 549.00216 106.072338 548.12576 106.55389ZM510.7801 38.586626H509.7801V3.446106H510.7801 511.7801V38.586626H510.7801ZM510.7801 3.446106V4.446106H484.27207V3.446106 2.446106H510.7801V3.446106ZM484.27207 3.446106H485.27207V38.586626H484.27207 483.27207V3.446106H484.27207ZM484.27207 38.586626 485.14848 39.068185 447.80287 107.035449 446.92643 106.55389 446.05003 106.072338 483.39564 38.105066 484.27207 38.586626ZM446.92643 106.55389V105.55389H476.2171V106.55389 107.55389H446.92643V106.55389ZM476.2171 106.55389 475.33708 106.07899 496.71925 66.45552 497.5993 66.93042 498.47935 67.40532 477.09715 107.02879 476.2171 106.55389ZM497.5993 66.93042 498.48069 66.45804 519.71646 106.08151 518.835 106.55389 517.9537 107.02627 496.7179 67.402797 497.5993 66.93042ZM518.835 106.55389V105.55389H548.12576V106.55389 107.55389H518.835V106.55389ZM580.2471 2V3C571.61099 3 565.23727 5.131813 561.0216 9.174988 556.8134 13.211044 554.5925 19.309021 554.5925 27.596184H553.5925 552.5925C552.5925 18.963837 554.91177 12.263718 559.6372 7.73156 564.3552 3.20652 571.3088 1 580.2471 1V2ZM553.5925 27.596184H554.5925C554.5925 28.33899 554.59317 28.692353 554.6086 28.920716 554.62 29.090065 554.6352 29.149094 554.68649 29.300889L553.73898 29.620736 552.7915 29.940583C552.58108 29.3172 552.5925 28.98497 552.5925 27.596184H553.5925ZM553.73898 29.620736 553.85946 28.628014 580.0746 31.809464 579.95419 32.802179 579.8337 33.79489 553.61849 30.61345 553.73898 29.620736ZM579.95419 32.802179H578.95419V31.789902H579.95419 580.95419V32.802179H579.95419ZM579.95419 31.789902H578.95419C578.95419 28.895722 579.47018 26.61979 581.0613 25.11599 582.6355 23.628197 585.0251 23.125504 588.1555 23.125504V24.125504 25.125504C585.1349 25.125504 583.42379 25.635094 582.43508 26.569535 581.46328 27.487984 580.95419 29.04425 580.95419 31.789902H579.95419ZM588.1555 24.125504V23.125504H605.5835V24.125504 25.125504H588.1555V24.125504ZM605.5835 24.125504V23.125504C608.6455 23.125504 610.99966 23.629883 612.55477 25.120949 614.12228 26.623864 614.6384 28.895478 614.6384 31.789902H613.6384 612.6384C612.6384 29.044487 612.1294 27.483902 611.1706 26.564583 610.1994 25.633408 608.526 25.125504 605.5835 25.125504V24.125504ZM613.6384 31.789902H614.6384V34.537515H613.6384 612.6384V31.789902H613.6384ZM613.6384 34.537515H614.6384C614.6384 35.77688 614.52688 36.884767 614.16207 37.850809 613.78488 38.849519 613.15719 39.644723 612.2246 40.280534 611.31936 40.897745 610.1499 41.349184 608.7013 41.727815 607.2471 42.107927 605.4464 42.43052 603.24026 42.75728L603.09378 41.768075 602.9472 40.778863C605.13467 40.454874 606.84896 40.1448 608.19558 39.792818 609.5479 39.439355 610.46548 39.059274 611.09799 38.62805 611.7032 38.21543 612.064 37.745294 612.291 37.14424 612.5303 36.51053 612.6384 35.684236 612.6384 34.537515H613.6384ZM603.09378 41.768075 603.2376 42.757669 579.3658 46.228338 579.22189 45.238744 579.078 44.249147 602.9499 40.778474 603.09378 41.768075ZM579.22189 45.238744 579.3638 46.228628C570.34188 47.521787 564.2977 49.726434 560.4992 53.27258 556.7473 56.775236 555.0319 61.7382 555.0319 68.95497H554.0319 553.0319C553.0319 61.421415 554.8314 55.827764 559.1344 51.810636 563.3908 47.837 569.9417 45.5587 579.08 44.24886L579.22189 45.238744ZM554.0319 68.95497H555.0319V82.40382H554.0319 553.0319V68.95497H554.0319ZM554.0319 82.40382H555.0319C555.0319 90.69098 557.25277 96.788959 561.46096 100.82501 565.6766 104.86819 572.0503 107 580.6864 107V108 109C571.7481 109 564.79458 106.79348 560.07656 102.26844 555.35116 97.73628 553.0319 91.03616 553.0319 82.40382H554.0319ZM580.6864 108V107H613.0526V108 109H580.6864V108ZM613.0526 108V107C621.6887 107 628.0248 104.86822 632.20339 100.844478 636.37527 96.82721 638.5606 90.76536 638.5606 82.54843H639.5606 640.5606C640.5606 91.1064 638.2792 97.77034 633.59066 102.28513 628.9088 106.79345 621.9909 109 613.0526 109V108ZM639.5606 82.54843H638.5606C638.5606 81.08353 638.5558 81.06309 638.44479 80.62471L639.4142 80.37926 640.3836 80.133808C640.56558 80.852329 640.5606 81.1211 640.5606 82.54843H639.5606ZM639.4142 80.37926 639.29916 81.37262 613.084 78.335788 613.19906 77.34242 613.3141 76.34907 639.5293 79.3859 639.4142 80.37926ZM613.19906 77.34242H614.19906V78.21009H613.19906 612.19906V77.34242H613.19906ZM613.19906 78.21009H614.19906C614.19906 81.169 613.68606 83.44983 612.1099 84.93845 610.55038 86.411449 608.1915 86.87449 605.1441 86.87449V85.87449 84.87449C608.10128 84.87449 609.7699 84.39756 610.73666 83.48447 611.6868 82.587009 612.19906 81.03564 612.19906 78.21009H613.19906ZM605.1441 85.87449V86.87449H588.8878V85.87449 84.87449H605.1441V85.87449ZM588.8878 85.87449V86.87449C585.68637 86.87449 583.2341 86.37224 581.6076 84.89822 579.9525 83.398319 579.3935 81.119579 579.3935 78.21009H580.3935 581.3935C581.3935 80.940448 581.93289 82.493907 582.9506 83.416248 583.9969 84.36446 585.7918 84.87449 588.8878 84.87449V85.87449ZM580.3935 78.21009H579.3935V75.89632H580.3935 581.3935V78.21009H580.3935ZM580.3935 75.89632H579.3935C579.3935 74.63794 579.4839 73.5221 579.8241 72.563449 580.17996 71.56078 580.7919 70.775669 581.73159 70.16083 582.635 69.569667 583.8152 69.15311 585.2903 68.80232 586.7737 68.44956 588.6347 68.14604 590.9449 67.82017L591.08456 68.81036 591.22427 69.80057C588.92117 70.12544 587.1391 70.41844 585.753 70.74806 584.3585 71.079669 583.44259 71.43135 582.8266 71.8344 582.2468 72.21375 581.916 72.6488 581.7089 73.232349 581.4862 73.85989 581.3935 74.696308 581.3935 75.89632H580.3935ZM591.08456 68.81036 590.9415 67.82065 614.9599 64.349979 615.1029 65.3397 615.2459 66.32942 591.2276 69.80009 591.08456 68.81036ZM615.1029 65.3397 614.96218 64.349658C624.0588 63.056219 630.01968 60.85189 633.7223 57.280897 637.3836 53.74968 639 48.71681 639 41.334238H640 641C641 48.991235 639.32119 54.659589 635.11068 58.720464 630.9414 62.741559 624.45376 65.02017 615.2437 66.32974L615.1029 65.3397ZM640 41.334238H639V27.596184H640 641V41.334238H640ZM640 27.596184H639C639 19.30468 636.8134 13.206696 632.64126 9.172134 628.4631 5.13176 622.1281 3 613.492 3V2 1C622.43026 1 629.3493 3.206573 634.03158 7.734413 638.7198 12.268066 641 18.96817 641 27.596184H640ZM613.492 2V3H580.2471V2 1H613.492V2Z" fill="#0873bb"/>
<path transform="matrix(1,0,0,-1,132.84745,109)" d="M56.384546 106.55389C73.95895 106.55389 82.8926 97.87722 82.8926 80.9577V64.90586C82.8926 47.98636 73.95895 39.309679 56.384546 39.309679H26.361607V3.446106H0V106.55389H56.384546ZM56.531 69.09959V76.763988C56.531 82.54843 54.480649 84.428379 48.47606 84.428379H26.361607V61.435197H48.47606C54.480649 61.435197 56.531 63.45975 56.531 69.09959Z" fill="#0873bb"/>
<path transform="matrix(1,0,0,-1,132.84745,109)" d="M159.96596 3.446106 134.48308 40.032747H122.47391V3.446106H96.112308V106.55389H152.78977C170.51062 106.55389 179.44426 97.87722 179.44426 80.9577V65.484317C179.44426 52.758527 174.46485 44.80491 164.35956 41.62346L190.72118 3.446106H159.96596ZM122.47391 84.428379V62.15825H144.88127C151.0323 62.15825 153.08266 64.03819 153.08266 69.67804V76.763988C153.08266 82.54843 151.0323 84.428379 144.88127 84.428379H122.47391Z" fill="#0873bb"/>
<path transform="matrix(1,0,0,-1,132.84745,109)" d="M203.0942 3.446106V106.55389H229.45578V3.446106H203.0942Z" fill="#0873bb"/>
<path transform="matrix(1,0,0,-1,132.84745,109)" d="M311.54518 106.55389H337.9068V3.446106H312.27748L274.93186 63.45975V3.446106H248.57024V106.55389H274.05314L311.54518 46.540246V106.55389Z" fill="#0873bb"/>
<path transform="matrix(1,0,0,-1,132.84745,109)" d="M381.44349 2C363.86909 2 354.78898 10.676674 354.78898 27.596184 354.78898 29.04229 354.78898 29.186898 354.93544 29.620736L381.15058 32.802179V31.789902C381.15058 26.150063 383.20094 24.125504 389.35197 24.125504H406.7799C412.78453 24.125504 414.83485 26.150063 414.83485 31.789902V34.537515C414.83485 39.309686 413.0774 40.466569 404.2902 41.768075L380.4183 45.238744C362.2581 47.841745 355.22834 54.204637 355.22834 68.95497V82.40382C355.22834 99.323329 364.30845 108 381.88285 108H414.24906C431.82344 108 440.7571 99.323329 440.7571 82.54843 440.7571 81.10231 440.7571 80.9577 440.61064 80.37926L414.39549 77.34242V78.21009C414.39549 83.994548 412.34513 85.87449 406.34056 85.87449H390.08424C383.78675 85.87449 381.58995 83.84993 381.58995 78.21009V75.89632C381.58995 70.97954 383.05448 70.11186 392.28105 68.81036L416.29939 65.3397C434.60606 62.7367 441.19645 56.373804 441.19645 41.334238V27.596184C441.19645 10.676674 432.2628 2 414.6884 2H381.44349Z" fill="#0873bb"/>
<path transform="matrix(1,0,0,-1,132.84745,109)" d="M548.12576 106.55389 510.7801 38.586626V3.446106H484.27207V38.586626L446.92643 106.55389H476.2171L497.5993 66.93042 518.835 106.55389H548.12576Z" fill="#0873bb"/>
<path transform="matrix(1,0,0,-1,132.84745,109)" d="M580.2471 2C562.67269 2 553.5925 10.676674 553.5925 27.596184 553.5925 29.04229 553.5925 29.186898 553.73898 29.620736L579.95419 32.802179V31.789902C579.95419 26.150063 582.00448 24.125504 588.1555 24.125504H605.5835C611.5881 24.125504 613.6384 26.150063 613.6384 31.789902V34.537515C613.6384 39.309686 611.8809 40.466569 603.09378 41.768075L579.22189 45.238744C561.06167 47.841745 554.0319 54.204637 554.0319 68.95497V82.40382C554.0319 99.323329 563.112 108 580.6864 108H613.0526C630.627 108 639.5606 99.323329 639.5606 82.54843 639.5606 81.10231 639.56069 80.9577 639.4142 80.37926L613.19906 77.34242V78.21009C613.19906 83.994548 611.1487 85.87449 605.1441 85.87449H588.8878C582.59036 85.87449 580.3935 83.84993 580.3935 78.21009V75.89632C580.3935 70.97954 581.858 70.11186 591.08456 68.81036L615.1029 65.3397C633.4096 62.7367 640 56.373804 640 41.334238V27.596184C640 10.676674 631.0664 2 613.492 2H580.2471Z" fill="#0873bb"/>
</svg>
